<?xml version="1.0" encoding="utf-8"?>
<!-- Generator: Adobe Illustrator 26.0.0, SVG Export Plug-In . SVG Version: 6.00 Build 0)  -->
<svg version="1.1" xmlns="http://www.w3.org/2000/svg" xmlns:xlink="http://www.w3.org/1999/xlink" x="0px" y="0px"
	 viewBox="0 0 16 16" style="enable-background:new 0 0 16 16;" xml:space="preserve">
<style type="text/css">
	.st0{fill:#4E8C6A;}
	.st1{fill:#FAFBFC;}
</style>
<g id="Layer_2">
	<rect width="16" height="16"/>
</g>
<g id="Layer_1">
	<g>
		<path class="st0" d="M10.2,7.2H8.6v6.4c0.6-0.2,1.2-0.5,1.7-0.9V7.2z"/>
		<g>
			<path class="st1" d="M6.3,1.9c1.6,0,3.1,0.7,4.1,1.8V2.6C9.3,1.7,7.8,1.1,6.3,1.1C2.8,1.1,0,3.9,0,7.4c0,3.3,2.5,6,5.7,6.3v-0.8
				c-2.8-0.3-4.9-2.6-4.9-5.5C0.8,4.4,3.2,1.9,6.3,1.9z"/>
		</g>
		<path class="st0" d="M8,13.5V9.5H6.3v4.2c0.2,0,0.4,0,0.6,0C7.3,13.7,7.6,13.6,8,13.5z"/>
		<g>
			<polygon class="st1" points="12.3,7.6 12.3,4.7 15.2,4.7 16,2.6 10.8,2.6 10.8,14.9 12.3,14.9 12.3,9.7 14.7,9.7 15.4,7.6 			"/>
		</g>
	</g>
</g>
</svg>
