<?xml version="1.0" encoding="utf-8"?>
<!-- Generator: Adobe Illustrator 26.0.0, SVG Export Plug-In . SVG Version: 6.00 Build 0)  -->
<svg version="1.1" id="Layer_1" xmlns="http://www.w3.org/2000/svg" xmlns:xlink="http://www.w3.org/1999/xlink" x="0px" y="0px"
	 viewBox="0 0 24 24" style="enable-background:new 0 0 24 24;" xml:space="preserve">
<style type="text/css">
	.st0{fill:#4E8C6A;}
	.st1{fill:#0F3C63;}
</style>
<g>
	<path class="st0" d="M15.3,10.9h-2.4v9.2c0.9-0.3,1.7-0.8,2.4-1.3V10.9z"/>
	<g>
		<path class="st1" d="M9.5,3.1c2.4,0,4.5,1,5.9,2.6V4.2C13.9,2.8,11.8,2,9.5,2c-5,0-9.1,4.1-9.1,9.1c0,4.8,3.6,8.7,8.3,9.1v-1.1
			c-4-0.4-7.1-3.8-7.1-7.9C1.5,6.7,5.1,3.1,9.5,3.1z"/>
	</g>
	<path class="st0" d="M12,20v-5.9H9.5v6.1c0.3,0,0.6,0.1,0.8,0.1C10.9,20.3,11.5,20.2,12,20z"/>
	<g>
		<polygon class="st1" points="18.2,11.4 18.2,7.2 22.5,7.2 23.6,4.2 16,4.2 16,22 18.2,22 18.2,14.4 21.7,14.4 22.8,11.4 		"/>
	</g>
</g>
</svg>
